<svg width="26" height="23" viewBox="0 0 26 23" fill="none" xmlns="http://www.w3.org/2000/svg">
<mask id="mask0_2_176" style="mask-type:alpha" maskUnits="userSpaceOnUse" x="3" y="0" width="20" height="20">
<path fill-rule="evenodd" clip-rule="evenodd" d="M7.62 8.79C9.06 11.62 11.38 13.93 14.21 15.38L16.41 13.18C16.68 12.91 17.08 12.82 17.43 12.94C18.55 13.31 19.76 13.51 21 13.51C21.55 13.51 22 13.96 22 14.51V18C22 18.55 21.55 19 21 19C11.61 19 4 11.39 4 2C4 1.45 4.45 1 5 1H8.5C9.05 1 9.5 1.45 9.5 2C9.5 3.25 9.7 4.45 10.07 5.57C10.18 5.92 10.1 6.31 9.82 6.59L7.62 8.79V8.79Z" fill="white" stroke="white"/>
</mask>
<g mask="url(#mask0_2_176)">
<rect y="-3" width="26" height="26" fill="white" fill-opacity="0.5"/>
</g>
</svg>
